<svg width="524" height="262" viewBox="0 0 524 262" fill="none" xmlns="http://www.w3.org/2000/svg">
  <path fill-rule="evenodd" clip-rule="evenodd"
    d="M94.547 184.462C94.547 189.178 97.2183 193.002 100.513 193.002H136.312C139.607 193.002 142.278 189.178 142.278 184.462V148.684H154.298C154.743 148.684 155.179 148.66 155.6 148.611H181.75C198.451 175.811 228.579 193.967 262.97 193.967C302.415 193.967 336.251 170.084 350.653 136.066H409.982C413.465 136.066 416.289 138.875 416.289 142.339C416.289 145.803 413.465 148.611 409.982 148.611H369.711C365.96 148.611 362.919 151.636 362.919 155.367C362.919 159.097 365.96 162.122 369.711 162.122H426.963C427.335 162.122 427.7 162.092 428.056 162.035H457.466V188.322C457.466 193.038 460.137 196.862 463.432 196.862H499.23C502.526 196.862 505.197 193.038 505.197 188.322V152.544H517.216C520.963 152.544 524 150.829 524 147.523V120.133C524 116.827 520.963 114.147 517.216 114.147H505.197V12.4C505.197 7.6835 502.526 3.86004 499.23 3.86004H439.578C435.826 3.86004 432.785 6.88438 432.785 10.6151C432.785 14.3458 435.826 17.3702 439.578 17.3702H463.352C466.835 17.3702 469.659 20.1785 469.659 23.6427C469.659 27.107 466.835 29.9153 463.352 29.9153H423.567C420.083 29.9153 417.259 32.7236 417.259 36.1879C417.259 39.6521 420.083 42.4604 423.567 42.4604H430.036L371.988 114.223C370.932 115.921 370.73 117.668 370.691 119.809C370.685 119.916 370.681 120.024 370.681 120.133V122.556H355.194C357.07 115.145 358.067 107.386 358.067 99.396C358.067 95.8074 357.866 92.2655 357.474 88.7809H362.919C366.67 88.7809 369.711 85.7565 369.711 82.0258C369.711 78.2951 366.67 75.2707 362.919 75.2707L325.559 75.2707C322.076 75.2707 319.252 72.4624 319.252 68.9982C319.252 65.5339 322.076 62.7256 325.559 62.7256L389.119 62.7256C392.87 62.7256 395.911 59.7013 395.911 55.9705C395.911 52.2398 392.87 49.2155 389.119 49.2155H343.59C326.774 22.5523 296.954 4.82505 262.97 4.82505C261.807 4.82505 260.648 4.84584 259.494 4.88706C259.203 4.84619 258.906 4.82505 258.604 4.82505H183.885C180.402 4.82505 177.578 7.63337 177.578 11.0976C177.578 14.5618 180.402 17.3702 183.885 17.3702H236.285C239.769 17.3702 242.593 20.1785 242.593 23.6427C242.593 27.107 239.769 29.9153 236.285 29.9153H168.359C164.34 29.9153 161.081 33.1557 161.081 37.1529C161.081 41.1501 164.34 44.3904 168.359 44.3904H185.605C174.444 59.8883 167.874 78.8792 167.874 99.396C167.874 102.985 168.075 106.526 168.466 110.011H142.278V8.53992C142.278 3.82346 139.607 0 136.312 0H76.6593C72.9078 0 69.8667 3.02435 69.8667 6.75507C69.8667 10.4858 72.9078 13.5101 76.6593 13.5101H100.433C103.917 13.5101 106.741 16.3185 106.741 19.7827C106.741 23.2469 103.917 26.0553 100.433 26.0553H60.6482C57.1647 26.0553 54.3407 28.8636 54.3407 32.3278C54.3407 35.7921 57.1647 38.6004 60.6482 38.6004H67.1176L9.06962 110.363C8.0139 112.061 7.81152 113.808 7.77272 115.949C7.76623 116.056 7.76296 116.164 7.76296 116.273V132.206H47.063C50.5464 132.206 53.3704 135.015 53.3704 138.479C53.3704 141.943 50.5464 144.751 47.063 144.751H6.79259C3.04115 144.751 0 147.776 0 151.506C0 155.237 3.04115 158.262 6.79259 158.262H64.0444C64.4167 158.262 64.7819 158.232 65.1379 158.174H94.547V184.462ZM155.744 123.521H207.174C210.658 123.521 213.481 126.33 213.481 129.794C213.481 133.258 210.658 136.066 207.174 136.066H155.744C152.261 136.066 149.437 133.258 149.437 129.794C149.437 126.33 152.261 123.521 155.744 123.521ZM76.6593 86.3683C76.6593 90.2312 79.7023 93.3873 83.5345 93.595L83.5257 93.6059H95.5815C99.6009 93.6059 102.859 90.3655 102.859 86.3683C102.859 82.3711 99.6009 79.1308 95.5815 79.1308H83.937C79.9176 79.1308 76.6593 82.3711 76.6593 86.3683ZM73.294 106.22L73.35 106.151H96.5519C100.035 106.151 102.859 108.959 102.859 112.424C102.859 115.888 100.035 118.696 96.5519 118.696H74.2333C70.7499 118.696 67.9259 115.888 67.9259 112.424C67.9259 109.277 70.256 106.671 73.294 106.22ZM446.453 97.4551C442.621 97.2473 439.578 94.0913 439.578 90.2284C439.578 86.2312 442.836 82.9908 446.856 82.9908H458.5C462.519 82.9908 465.778 86.2312 465.778 90.2284C465.778 94.2256 462.519 97.4659 458.5 97.4659H446.444L446.453 97.4551ZM459.47 110.011H436.269L436.212 110.08C433.175 110.531 430.844 113.137 430.844 116.284C430.844 119.748 433.668 122.556 437.152 122.556H459.47C462.954 122.556 465.778 119.748 465.778 116.284C465.778 112.819 462.954 110.011 459.47 110.011ZM270.094 130.97C270.094 134.889 266.899 138.066 262.958 138.066C259.017 138.066 255.823 134.889 255.823 130.97C255.823 127.051 259.017 123.874 262.958 123.874C266.899 123.874 270.094 127.051 270.094 130.97ZM256.853 60.7956C255.408 60.7956 254.237 62.182 254.237 63.8922L256.853 114.469C256.853 116.18 258.025 117.566 259.47 117.566H266.447C267.892 117.566 269.063 116.18 269.063 114.469L271.68 63.8922C271.68 62.182 270.508 60.7956 269.063 60.7956H256.853Z"
    fill="#E0E1F3" />
  <path fill-rule="evenodd" clip-rule="evenodd"
    d="M357.9 258.454C359.897 260.818 362.583 262 365.959 262C367.411 262 368.79 261.665 370.097 260.995C371.404 260.324 372.548 259.513 373.528 258.56H373.746L374.181 261.365H379.354V224.003H373.092V233.423L373.31 237.603C372.257 236.721 371.204 236.033 370.152 235.54C369.099 235.01 367.81 234.746 366.286 234.746C364.834 234.746 363.418 235.063 362.038 235.698C360.695 236.333 359.497 237.233 358.444 238.397C357.392 239.562 356.539 240.99 355.885 242.684C355.268 244.377 354.96 246.282 354.96 248.399C354.96 252.704 355.94 256.055 357.9 258.454ZM373.092 254.062C371.35 256.002 369.48 256.973 367.484 256.973C365.523 256.973 364.017 256.249 362.964 254.803C361.948 253.321 361.439 251.169 361.439 248.346C361.439 245.595 362.038 243.478 363.236 241.996C364.434 240.514 365.904 239.773 367.647 239.773C368.554 239.773 369.444 239.932 370.315 240.25C371.223 240.567 372.148 241.132 373.092 241.943V254.062Z"
    fill="#E0E1F3" />
  <path
    d="M144.646 226.755V261.365H150.69V246.23C150.69 244.289 150.581 242.313 150.363 240.302C150.182 238.291 150.018 236.369 149.873 234.534H150.091L153.739 241.89L164.848 261.365H171.327V226.755H165.283V241.784C165.283 243.725 165.374 245.736 165.556 247.817C165.773 249.863 165.955 251.786 166.1 253.586H165.882L162.234 246.23L151.126 226.755H144.646Z"
    fill="#E0E1F3" />
  <path fill-rule="evenodd" clip-rule="evenodd"
    d="M185.989 261.1C187.513 261.7 189.111 262 190.781 262C192.45 262 194.048 261.7 195.572 261.1C197.133 260.501 198.495 259.619 199.656 258.454C200.818 257.29 201.744 255.861 202.433 254.168C203.159 252.474 203.522 250.551 203.522 248.399C203.522 246.247 203.159 244.324 202.433 242.631C201.744 240.937 200.818 239.509 199.656 238.344C198.495 237.18 197.133 236.298 195.572 235.698C194.048 235.063 192.45 234.746 190.781 234.746C189.111 234.746 187.513 235.063 185.989 235.698C184.464 236.298 183.103 237.18 181.905 238.344C180.743 239.509 179.818 240.937 179.128 242.631C178.438 244.324 178.093 246.247 178.093 248.399C178.093 250.551 178.438 252.474 179.128 254.168C179.818 255.861 180.743 257.29 181.905 258.454C183.103 259.619 184.464 260.501 185.989 261.1ZM195.409 254.697C194.284 256.249 192.741 257.025 190.781 257.025C188.82 257.025 187.277 256.249 186.152 254.697C185.063 253.109 184.519 251.01 184.519 248.399C184.519 245.753 185.063 243.654 186.152 242.102C187.277 240.514 188.82 239.72 190.781 239.72C192.741 239.72 194.284 240.514 195.409 242.102C196.534 243.654 197.097 245.753 197.097 248.399C197.097 251.01 196.534 253.109 195.409 254.697Z"
    fill="#E0E1F3" />
  <path
    d="M217.918 262C216.357 262 215.032 261.771 213.943 261.312C212.89 260.853 212.019 260.218 211.329 259.407C210.676 258.56 210.186 257.572 209.859 256.443C209.568 255.279 209.423 253.991 209.423 252.58V240.197H205.612V235.645L209.75 235.381L210.512 228.289H215.74V235.381H222.546V240.197H215.74V252.58C215.74 255.614 216.992 257.131 219.497 257.131C219.969 257.131 220.441 257.078 220.913 256.973C221.421 256.867 221.875 256.726 222.274 256.549L223.363 261.047C222.637 261.294 221.802 261.506 220.858 261.682C219.951 261.894 218.971 262 217.918 262Z"
    fill="#E0E1F3" />
  <path d="M239.618 226.755V261.365H245.935V246.918H258.895V241.731H245.935V231.941H261.127V226.755H239.618Z"
    fill="#E0E1F3" />
  <path fill-rule="evenodd" clip-rule="evenodd"
    d="M276.926 262C275.256 262 273.659 261.7 272.134 261.1C270.609 260.501 269.248 259.619 268.05 258.454C266.889 257.29 265.963 255.861 265.273 254.168C264.583 252.474 264.239 250.551 264.239 248.399C264.239 246.247 264.583 244.324 265.273 242.631C265.963 240.937 266.889 239.509 268.05 238.344C269.248 237.18 270.609 236.298 272.134 235.698C273.659 235.063 275.256 234.746 276.926 234.746C278.596 234.746 280.193 235.063 281.718 235.698C283.279 236.298 284.64 237.18 285.802 238.344C286.963 239.509 287.889 240.937 288.579 242.631C289.305 244.324 289.668 246.247 289.668 248.399C289.668 250.551 289.305 252.474 288.579 254.168C287.889 255.861 286.963 257.29 285.802 258.454C284.64 259.619 283.279 260.501 281.718 261.1C280.193 261.7 278.596 262 276.926 262ZM276.926 257.025C278.886 257.025 280.429 256.249 281.554 254.697C282.68 253.109 283.242 251.01 283.242 248.399C283.242 245.753 282.68 243.654 281.554 242.102C280.429 240.514 278.886 239.72 276.926 239.72C274.966 239.72 273.423 240.514 272.297 242.102C271.208 243.654 270.664 245.753 270.664 248.399C270.664 251.01 271.208 253.109 272.297 254.697C273.423 256.249 274.966 257.025 276.926 257.025Z"
    fill="#E0E1F3" />
  <path
    d="M297.554 259.354C298.861 261.118 300.948 262 303.816 262C305.667 262 307.265 261.594 308.608 260.783C309.987 259.971 311.258 258.895 312.419 257.555H312.583L313.073 261.365H318.191V235.381H311.929V253.162C310.913 254.432 309.951 255.35 309.043 255.914C308.172 256.479 307.156 256.761 305.994 256.761C304.542 256.761 303.489 256.32 302.836 255.438C302.182 254.556 301.856 253.039 301.856 250.887V235.381H295.594V251.68C295.594 254.997 296.247 257.555 297.554 259.354Z"
    fill="#E0E1F3" />
  <path
    d="M326.123 261.365V235.381H331.296L331.732 238.874H331.95C333.148 237.745 334.436 236.774 335.816 235.963C337.231 235.151 338.865 234.746 340.716 234.746C343.584 234.746 345.672 235.645 346.978 237.445C348.285 239.209 348.939 241.749 348.939 245.065V261.365H342.677V245.859C342.677 243.707 342.35 242.19 341.697 241.308C341.043 240.426 339.972 239.985 338.484 239.985C337.322 239.985 336.288 240.267 335.38 240.832C334.509 241.361 333.511 242.155 332.385 243.213V261.365H326.123Z"
    fill="#E0E1F3" />
</svg>